# xmcd
#
# Track frame offsets:
#	150
#	20298
#	38691
#	66083
#	75699
#	92747
#	107983
#	118441
#	136997
#	150182
#	169747
#	178512
#	191854
#	203832
#	221345
#	242197
#	257983
#
# Disc length: 3689 seconds
#
# Revision: 1
# Processed by: cddbd v1.5.1PL0 Copyright (c) Steve Scherf et al.
# Submitted via: audiograbber 1.83.01
#
DISCID=ec0e6711
DTITLE=Albert C. Humphrey and The Roots of Blues - Going back in time
DYEAR=2003
DGENRE=Blues
TTITLE0=Come fly away with me baby
TTITLE1=Nothin but bad news
TTITLE2=They mourned and they suffered
TTITLE3=When it's love time
TTITLE4=Doctor write me a prescription for the Blues
TTITLE5=It's blues time
TTITLE6=Help me baby
TTITLE7=It's time to understand
TTITLE8=Write me a few of your lines
TTITLE9=Wang Dang Doodle
TTITLE10=Leave my baby for me
TTITLE11=My Mama told me too
TTITLE12=I got my eyes on you
TTITLE13=Sea of tears
TTITLE14=Blues Blues Blues
TTITLE15=I got a Louisiana Woman
TTITLE16=Aunt Jenny
EXTD=
EXTT0=
EXTT1=
EXTT2=
EXTT3=
EXTT4=
EXTT5=
EXTT6=
EXTT7=
EXTT8=
EXTT9=
EXTT10=
EXTT11=
EXTT12=
EXTT13=
EXTT14=
EXTT15=
EXTT16=
PLAYORDER=
